<svg width="12" height="14" viewBox="0 0 12 14" fill="none" xmlns="http://www.w3.org/2000/svg">
<path fill-rule="evenodd" clip-rule="evenodd" d="M3.25 0.8125C2.87031 0.8125 2.5625 1.15878 2.5625 1.58594V2.35938H1.875C1.11561 2.35938 0.5 3.05193 0.5 3.90625V11.6406C0.5 12.495 1.11561 13.1875 1.875 13.1875H10.125C10.8844 13.1875 11.5 12.495 11.5 11.6406V3.90625C11.5 3.05193 10.8844 2.35938 10.125 2.35938H9.4375V1.58594C9.4375 1.15878 9.12971 0.8125 8.75 0.8125C8.37029 0.8125 8.0625 1.15878 8.0625 1.58594V2.35938H3.9375V1.58594C3.9375 1.15878 3.62969 0.8125 3.25 0.8125ZM3.25 4.67969C2.87031 4.67969 2.5625 5.02597 2.5625 5.45312C2.5625 5.88028 2.87031 6.22656 3.25 6.22656H8.75C9.12971 6.22656 9.4375 5.88028 9.4375 5.45312C9.4375 5.02597 9.12971 4.67969 8.75 4.67969H3.25Z" fill="#13092F"/>
</svg>
