<svg width="17" height="17" viewBox="0 0 17 17" fill="none" xmlns="http://www.w3.org/2000/svg">
<path d="M8.5 0C3.808 0 0 3.808 0 8.5C0 13.192 3.808 17 8.5 17C13.192 17 17 13.192 17 8.5C17 3.808 13.192 0 8.5 0ZM8.5 15.3C4.7515 15.3 1.7 12.2485 1.7 8.5C1.7 4.7515 4.7515 1.7 8.5 1.7C12.2485 1.7 15.3 4.7515 15.3 8.5C15.3 12.2485 12.2485 15.3 8.5 15.3ZM12.0445 10.846L11.1095 9.911C11.713 8.7805 11.56 7.3525 10.608 6.4005C10.3321 6.1223 10.0037 5.90165 9.6418 5.75136C9.27993 5.60107 8.89183 5.52413 8.5 5.525C8.4745 5.525 8.449 5.5335 8.4235 5.5335L9.35 6.46L8.449 7.361L6.0435 4.9555L8.449 2.55L9.35 3.451L8.534 4.267C9.6135 4.2755 10.6845 4.675 11.509 5.491C12.954 6.9445 13.1325 9.197 12.0445 10.846ZM10.9565 12.0445L8.551 14.45L7.65 13.549L8.4575 12.7415C7.34669 12.7328 6.28399 12.287 5.4995 11.5005C4.80763 10.8079 4.37574 9.89793 4.27665 8.924C4.17755 7.95007 4.41731 6.97175 4.9555 6.154L5.8905 7.089C5.287 8.2195 5.44 9.6475 6.392 10.5995C6.987 11.1945 7.7775 11.4835 8.568 11.458L7.65 10.54L8.551 9.639L10.9565 12.0445Z" fill="#110041"/>
</svg>
