<svg width="25" height="24" viewBox="0 0 25 24" fill="none" xmlns="http://www.w3.org/2000/svg">
<path d="M2.5351 5.52864L2.53513 5.52954L2.66808 9.76784C2.66808 9.76785 2.66808 9.76785 2.66808 9.76786C2.76988 13.0033 4.31668 16.0933 7.00625 18.3535C8.46649 19.5796 10.0577 20.5865 11.8531 21.3805L2.5351 5.52864ZM2.5351 5.52864C2.53261 5.45746 2.53091 5.37016 2.52993 5.27272L2.7329 5.25484L2.73318 5.25482L2.76802 5.25171C3.74284 5.16474 4.7906 5.07127 5.76568 4.92543L5.76572 4.92543C7.35643 4.68731 9.02728 4.28166 10.5485 3.41737L10.5486 3.41731L11.7944 2.70872C11.7946 2.70859 11.7948 2.70846 11.7951 2.70832C12.1091 2.53248 12.4701 2.43889 12.839 2.43889C13.208 2.43889 13.569 2.53248 13.883 2.70832C13.8832 2.70845 13.8834 2.70859 13.8837 2.70872L15.1844 3.4488L15.1845 3.44887C16.6283 4.26934 18.1629 4.64357 19.6106 4.87163L19.6123 4.87188C20.3214 4.9787 21.0332 5.06938 21.7471 5.14386L21.7473 5.14389M2.5351 5.52864L21.7473 5.14389M21.7473 5.14389L21.7795 5.1472C21.7799 5.14724 21.7803 5.14729 21.7807 5.14733C21.8319 5.15312 21.8829 5.15886 21.9337 5.16459C22.115 5.18502 22.2938 5.20516 22.4705 5.22565C22.4695 5.33656 22.4676 5.43644 22.4653 5.5157C22.4653 5.51576 22.4653 5.51582 22.4653 5.51588L22.3317 9.76784C22.23 13.0038 20.6832 16.0933 17.9936 18.3535C16.6314 19.4976 15.2632 20.4973 13.7148 21.3188C13.4334 21.466 13.1173 21.5489 12.7928 21.5598C12.4683 21.5707 12.1462 21.5091 11.8538 21.3808L21.7473 5.14389ZM11.1024 22.9125L11.1026 22.9126C12.2088 23.4011 13.5191 23.3572 14.5814 22.7936C16.2787 21.8931 17.7528 20.8106 19.1718 19.6187L19.1718 19.6187C22.2121 17.0638 23.9925 13.5413 24.1093 9.81803L24.2429 5.56604L24.2429 5.56594C24.2507 5.31343 24.2508 4.91282 24.2491 4.57876C24.2482 4.41099 24.2468 4.25878 24.2457 4.14852L24.2442 4.01779L24.2438 3.98215L24.2437 3.97284L24.2436 3.97045L24.2436 3.96983L24.2436 3.96967L24.2436 3.96961L24.2408 3.75656L24.0299 3.72563C23.3552 3.62663 22.6781 3.54177 21.9992 3.47112C19.8998 3.23701 17.872 3.00812 16.0983 1.99922L16.0983 1.9992L14.7962 1.25892L14.7953 1.25844C14.2042 0.92539 13.5277 0.75 12.839 0.75C12.1504 0.75 11.4739 0.92539 10.8827 1.25844L10.8818 1.25895L9.63479 1.96826C9.63477 1.96828 9.63474 1.96829 9.63471 1.96831C7.60227 3.12335 5.11553 3.34708 2.64038 3.56579L2.64036 3.56579C2.08265 3.61512 1.52593 3.66468 0.979622 3.72447L0.759933 3.74851L0.756843 3.96949L1.00682 3.97298L0.756842 3.96951L0.756842 3.96955L0.75684 3.96971L0.756831 3.97033L0.756798 3.97273L0.756672 3.9821L0.756209 4.01796L0.754676 4.14953C0.753474 4.26052 0.752031 4.41378 0.751069 4.58281C0.749154 4.91943 0.749107 5.32343 0.756935 5.57951L0.756942 5.57974L0.890537 9.81803C0.890538 9.81804 0.890538 9.81805 0.890539 9.81806C1.00737 13.5413 2.78706 17.0638 5.82805 19.6187C7.41032 20.948 9.14469 22.0465 11.1024 22.9125Z" fill="#13092F" stroke="#13092F" stroke-width="0.5"/>
<path fill-rule="evenodd" clip-rule="evenodd" d="M11.2148 17.0542V6.35138H13.7717V17.0542H11.2148Z" fill="#13092F"/>
<path fill-rule="evenodd" clip-rule="evenodd" d="M18.2466 12.892H6.74072V10.5136H18.2466V12.892Z" fill="#13092F"/>
</svg>
