<svg width="16" height="16" viewBox="0 0 16 16" fill="none" xmlns="http://www.w3.org/2000/svg">
<path fill-rule="evenodd" clip-rule="evenodd" d="M7.56908 15.9858C11.7112 15.973 15.0581 12.4031 15.0445 8.0122C15.0309 3.6213 11.6621 0.0721366 7.51998 0.0849257C3.37787 0.0977147 0.0310098 3.66761 0.044567 8.05852C0.0581242 12.4494 3.42696 15.9986 7.56908 15.9858ZM8.46975 4.05725C8.46806 3.50839 8.04697 3.06474 7.52919 3.06634C7.01142 3.06794 6.59307 3.51418 6.59476 4.06304L6.60704 8.03825C6.60785 8.30181 6.7074 8.55433 6.88379 8.74012L9.54409 11.5428C9.91138 11.9299 10.505 11.928 10.8699 11.5387C11.2349 11.1495 11.2329 10.5202 10.8656 10.1333L8.48076 7.62082L8.46975 4.05725Z" fill="#110041"/>
</svg>
