<svg width="20" height="24" viewBox="0 0 20 24" fill="none" xmlns="http://www.w3.org/2000/svg">
<path d="M10 12C11.5155 12 12.969 11.3679 14.0406 10.2426C15.1122 9.11742 15.7143 7.5913 15.7143 6C15.7143 4.4087 15.1122 2.88258 14.0406 1.75736C12.969 0.632141 11.5155 0 10 0C8.48448 0 7.03103 0.632141 5.95939 1.75736C4.88775 2.88258 4.28571 4.4087 4.28571 6C4.28571 7.5913 4.88775 9.11742 5.95939 10.2426C7.03103 11.3679 8.48448 12 10 12ZM5.71429 14.5875C2.41071 15.6047 0 18.8109 0 22.6078C0 23.3766 0.59375 24 1.32589 24H18.6741C19.4062 24 20 23.3766 20 22.6078C20 18.8109 17.5893 15.6047 14.2857 14.5875V16.9688C15.5179 17.3016 16.4286 18.4781 16.4286 19.875V21.75C16.4286 22.1625 16.1071 22.5 15.7143 22.5H15C14.6071 22.5 14.2857 22.1625 14.2857 21.75C14.2857 21.3375 14.6071 21 15 21V19.875C15 19.0453 14.3616 18.375 13.5714 18.375C12.7812 18.375 12.1429 19.0453 12.1429 19.875V21C12.5357 21 12.8571 21.3375 12.8571 21.75C12.8571 22.1625 12.5357 22.5 12.1429 22.5H11.4286C11.0357 22.5 10.7143 22.1625 10.7143 21.75V19.875C10.7143 18.4781 11.625 17.3016 12.8571 16.9688V14.2922C12.5893 14.2641 12.317 14.25 12.0402 14.25H7.95982C7.68304 14.25 7.41071 14.2641 7.14286 14.2922V17.3578C8.17411 17.6812 8.92857 18.6844 8.92857 19.875C8.92857 21.3234 7.80804 22.5 6.42857 22.5C5.04911 22.5 3.92857 21.3234 3.92857 19.875C3.92857 18.6844 4.68304 17.6812 5.71429 17.3578V14.5875ZM6.42857 21C6.71273 21 6.98525 20.8815 7.18619 20.6705C7.38712 20.4595 7.5 20.1734 7.5 19.875C7.5 19.5766 7.38712 19.2905 7.18619 19.0795C6.98525 18.8685 6.71273 18.75 6.42857 18.75C6.14441 18.75 5.87189 18.8685 5.67096 19.0795C5.47003 19.2905 5.35714 19.5766 5.35714 19.875C5.35714 20.1734 5.47003 20.4595 5.67096 20.6705C5.87189 20.8815 6.14441 21 6.42857 21Z" fill="#4B2F99"/>
</svg>
