<svg width="18" height="16" viewBox="0 0 18 16" fill="none" xmlns="http://www.w3.org/2000/svg">
<path d="M13.631 6.7334C15.371 6.74084 15.5888 6.70816 16.2032 7.1841C16.9064 7.72884 16.9663 8.64281 16.9663 10.3954V11.0151C16.9663 12.7683 16.9663 13.6446 16.2631 14.1893C15.5607 14.7334 14.4287 14.7334 12.1663 14.7334H5.76631C3.50391 14.7334 2.37191 14.7334 1.66951 14.1893C0.966309 13.6439 0.966309 12.7683 0.966309 11.0151V10.3954C0.966309 8.64281 0.966309 7.76652 1.66951 7.22179C2.28391 6.74585 2.76 6.74084 4.5 6.7334" stroke="#4B2F99" stroke-width="1.5" stroke-linecap="round"/>
<path d="M9.33262 1.2666V10.2041M9.33262 10.2041L7 7.79785M9.33262 10.2041L11.6652 7.79785" stroke="#4B2F99" stroke-width="1.5" stroke-linecap="round" stroke-linejoin="round"/>
</svg>
