<?xml version="1.0" encoding="utf-8"?>
<!-- Generator: Adobe Illustrator 27.3.1, SVG Export Plug-In . SVG Version: 6.00 Build 0)  -->
<svg version="1.1" id="Layer_1" xmlns="http://www.w3.org/2000/svg" xmlns:xlink="http://www.w3.org/1999/xlink" x="0px" y="0px"
	 viewBox="0 0 25 25" style="enable-background:new 0 0 25 25;" xml:space="preserve">
<style type="text/css">
	.st0{fill:#13092F;}
</style>
<path class="st0" d="M20,25H5c-2.8,0-5-2.2-5-5v-7.4c0-1.5,0.7-2.9,1.8-3.9l8.8-7.2c1.1-0.9,2.7-0.9,3.8,0l8.8,7.2
	c1.2,1,1.8,2.4,1.8,3.9V20C25,22.8,22.8,25,20,25z M12.5,2.9c-0.2,0-0.5,0.1-0.6,0.2l-8.8,7.2C2.4,10.9,2,11.7,2,12.6V20
	c0,1.7,1.3,3,3,3h15c1.7,0,3-1.3,3-3v-7.4c0-0.9-0.4-1.7-1.1-2.3l-8.8-7.2C13,3,12.7,2.9,12.5,2.9z"/>
<path class="st0" d="M16,19.3H9.1c-0.6,0-1-0.4-1-1s0.4-1,1-1h6.8c0.6,0,1,0.4,1,1S16.5,19.3,16,19.3z"/>
</svg>
