<svg width="18" height="27" viewBox="0 0 18 27" fill="none" xmlns="http://www.w3.org/2000/svg">
<g filter="url(#filter0_d_841_5)">
<rect y="0.5" width="17.3913" height="25" rx="5" fill="white"/>
<path fill-rule="evenodd" clip-rule="evenodd" d="M2.46848 5.2437C1.58804 5.35166 1.12283 5.55027 0.790218 5.85481C0.458696 6.16036 0.242391 6.58814 0.123913 7.39583C0.00217374 8.22796 0 9.32999 0 10.9097V19.6384C0.430112 19.3626 0.907759 19.1582 1.41196 19.0344C1.98587 18.8929 2.65543 18.8929 3.63696 18.8939H17.3913V10.9107C17.3913 9.32999 17.3891 8.22796 17.2674 7.39583C17.1489 6.58814 16.9326 6.16036 16.6011 5.85481C16.2685 5.55027 15.8033 5.35166 14.9228 5.2437C14.0163 5.13166 12.8163 5.12962 11.0946 5.12962H6.29674C4.575 5.12962 3.375 5.13166 2.46848 5.2437ZM2.99891 9.80972C2.99891 9.35342 3.40109 8.9837 3.89783 8.9837H13.4935C13.7293 8.98179 13.9563 9.06755 14.1248 9.22219C14.2933 9.37682 14.3895 9.58772 14.3924 9.8087C14.3898 10.0299 14.2937 10.241 14.1252 10.3959C13.9567 10.5507 13.7295 10.6366 13.4935 10.6347H3.89783C3.66199 10.6366 3.43497 10.5509 3.26648 10.3962C3.098 10.2416 3.00178 10.0307 2.99891 9.80972ZM3.89783 12.8378C3.66199 12.8359 3.43497 12.9216 3.26648 13.0763C3.098 13.2309 3.00178 13.4418 2.99891 13.6628C2.99891 14.1191 3.40109 14.4888 3.89783 14.4888H9.89456C10.1306 14.491 10.3579 14.4053 10.5266 14.2507C10.6953 14.096 10.7917 13.8849 10.7946 13.6638C10.792 13.4425 10.6957 13.2311 10.527 13.0763C10.3582 12.9214 10.1308 12.8356 9.89456 12.8378H3.89783Z" fill="#4B2F99"/>
<path d="M3.77462 20.5448H17.3909C17.3877 21.6958 17.3681 22.5554 17.2681 23.2337C17.1496 24.0414 16.9333 24.4692 16.6018 24.7747C16.2692 25.0793 15.804 25.2779 14.9235 25.3858C14.017 25.4979 12.817 25.4999 11.0953 25.4999H6.29636C4.57462 25.4999 3.37462 25.4979 2.4681 25.3869C1.58766 25.2779 1.12244 25.0793 0.789835 24.7747C0.458314 24.4692 0.242009 24.0414 0.123531 23.2337C0.0789653 22.9282 0.0496179 22.5849 0.0322266 22.1948C0.181534 21.8135 0.42739 21.4718 0.748678 21.1991C1.06997 20.9265 1.45709 20.731 1.87679 20.6294C2.19201 20.552 2.60179 20.5448 3.77462 20.5448Z" fill="#4B2F99"/>
</g>
<defs>
<filter id="filter0_d_841_5" x="0" y="0.5" width="17.3911" height="26" filterUnits="userSpaceOnUse" color-interpolation-filters="sRGB">
<feFlood flood-opacity="0" result="BackgroundImageFix"/>
<feColorMatrix in="SourceAlpha" type="matrix" values="0 0 0 0 0 0 0 0 0 0 0 0 0 0 0 0 0 0 127 0" result="hardAlpha"/>
<feOffset dy="1"/>
<feComposite in2="hardAlpha" operator="out"/>
<feColorMatrix type="matrix" values="0 0 0 0 0.235294 0 0 0 0 0.14902 0 0 0 0 0.478431 0 0 0 1 0"/>
<feBlend mode="normal" in2="BackgroundImageFix" result="effect1_dropShadow_841_5"/>
<feBlend mode="normal" in="SourceGraphic" in2="effect1_dropShadow_841_5" result="shape"/>
</filter>
</defs>
</svg>
