<svg width="20" height="25" viewBox="0 0 20 25" fill="none" xmlns="http://www.w3.org/2000/svg">
<path fill-rule="evenodd" clip-rule="evenodd" d="M1.30222 1.465C-1.32455e-07 2.92875 0 5.28625 0 10V15C0 19.7137 -1.32455e-07 22.0712 1.30222 23.535C2.60333 25 4.69889 25 8.88889 25H11.1111C15.3011 25 17.3967 25 18.6978 23.535C20 22.0712 20 19.7137 20 15V10C20 5.28625 20 2.92875 18.6978 1.465C17.3967 -1.49012e-07 15.3011 0 11.1111 0H8.88889C4.69889 0 2.60333 -1.49012e-07 1.30222 1.465ZM10.8333 5C10.8333 4.75136 10.7455 4.5129 10.5893 4.33709C10.433 4.16127 10.221 4.0625 10 4.0625C9.77899 4.0625 9.56703 4.16127 9.41075 4.33709C9.25447 4.5129 9.16667 4.75136 9.16667 5V6.5625H7.77778C7.55676 6.5625 7.3448 6.66127 7.18852 6.83709C7.03224 7.0129 6.94444 7.25136 6.94444 7.5C6.94444 7.74864 7.03224 7.9871 7.18852 8.16291C7.3448 8.33873 7.55676 8.4375 7.77778 8.4375H9.16667V10C9.16667 10.2486 9.25447 10.4871 9.41075 10.6629C9.56703 10.8387 9.77899 10.9375 10 10.9375C10.221 10.9375 10.433 10.8387 10.5893 10.6629C10.7455 10.4871 10.8333 10.2486 10.8333 10V8.4375H12.2222C12.4432 8.4375 12.6552 8.33873 12.8115 8.16291C12.9678 7.9871 13.0556 7.74864 13.0556 7.5C13.0556 7.25136 12.9678 7.0129 12.8115 6.83709C12.6552 6.66127 12.4432 6.5625 12.2222 6.5625H10.8333V5ZM5.55556 14.0625C5.33454 14.0625 5.12258 14.1613 4.9663 14.3371C4.81002 14.5129 4.72222 14.7514 4.72222 15C4.72222 15.2486 4.81002 15.4871 4.9663 15.6629C5.12258 15.8387 5.33454 15.9375 5.55556 15.9375H14.4444C14.6655 15.9375 14.8774 15.8387 15.0337 15.6629C15.19 15.4871 15.2778 15.2486 15.2778 15C15.2778 14.7514 15.19 14.5129 15.0337 14.3371C14.8774 14.1613 14.6655 14.0625 14.4444 14.0625H5.55556ZM6.66667 19.0625C6.44565 19.0625 6.23369 19.1613 6.07741 19.3371C5.92113 19.5129 5.83333 19.7514 5.83333 20C5.83333 20.2486 5.92113 20.4871 6.07741 20.6629C6.23369 20.8387 6.44565 20.9375 6.66667 20.9375H13.3333C13.5543 20.9375 13.7663 20.8387 13.9226 20.6629C14.0789 20.4871 14.1667 20.2486 14.1667 20C14.1667 19.7514 14.0789 19.5129 13.9226 19.3371C13.7663 19.1613 13.5543 19.0625 13.3333 19.0625H6.66667Z" fill="#038585"/>
</svg>
