<svg width="13" height="19" viewBox="0 0 13 19" fill="none" xmlns="http://www.w3.org/2000/svg">
<path d="M8.14873 13.5273C8.1523 13.9701 7.95835 14.3508 7.56687 14.6693C7.1754 14.9878 6.70358 15.1488 6.15141 15.1523C5.59858 15.1563 5.12389 15.002 4.72733 14.6892C4.33076 14.3765 4.13104 13.999 4.12814 13.5567C4.12457 13.1139 4.31852 12.7332 4.71 12.4148C5.10147 12.0963 5.57329 11.9353 6.12546 11.9318C6.67829 11.9277 7.15299 12.0821 7.54955 12.3948C7.94611 12.7075 8.14584 13.085 8.14873 13.5273ZM12.1693 13.4979C12.1801 14.8398 11.603 15.9847 10.4379 16.9326C9.27279 17.8805 7.85262 18.3605 6.17737 18.3728C4.50212 18.385 3.07438 17.9258 1.89414 16.995C0.713894 16.0643 0.118365 14.928 0.10755 13.5861C0.100304 12.6871 0.370148 11.8697 0.917083 11.1341C1.46402 10.3984 2.18807 9.81288 3.08925 9.3774L3.0349 2.63447C3.03404 2.52712 3.05833 2.4228 3.10777 2.32153C3.15722 2.22025 3.23187 2.12926 3.33174 2.04855L5.32906 0.423597C5.42893 0.34235 5.53736 0.284657 5.65436 0.250522C5.77136 0.216386 5.89686 0.19856 6.03088 0.197042C6.1649 0.196062 6.29068 0.212052 6.40822 0.245011C6.52576 0.277968 6.63511 0.334068 6.73627 0.41331L9.94822 2.94626C10.0325 3.01274 10.1002 3.09276 10.1512 3.18633C10.2022 3.27989 10.2365 3.37358 10.254 3.46739C10.2715 3.56119 10.2639 3.65519 10.2311 3.74936C10.1984 3.84354 10.1404 3.93119 10.0573 4.01232L9.08574 5.06614L10.1755 6.20555C10.2431 6.27215 10.2939 6.34559 10.3281 6.42586C10.3622 6.50613 10.3796 6.58652 10.3803 6.66703C10.3809 6.74754 10.3649 6.83167 10.3321 6.9194C10.2993 7.00714 10.2496 7.08453 10.1832 7.15158L9.11251 8.38729L9.12014 9.33332C10.0282 9.75611 10.7616 10.3313 11.3204 11.0588C11.8791 11.7864 12.1621 12.5994 12.1693 13.4979ZM10.159 13.5126C10.153 12.7612 9.86285 12.1022 9.28867 11.5358C8.71449 10.9694 7.99108 10.5958 7.11844 10.4148L7.09816 7.89878L8.11903 6.72382L6.57288 5.08451L7.94344 3.64531L6.04662 2.14948L5.04796 2.96195L5.10814 10.4295C4.23853 10.6237 3.52123 11.0082 2.95625 11.5829C2.39126 12.1577 2.11179 12.8205 2.11785 13.5714C2.12498 14.4571 2.52478 15.2123 3.31723 15.8373C4.10967 16.4622 5.05873 16.7706 6.16439 16.7625C7.27006 16.7544 8.21403 16.4322 8.99631 15.7957C9.77859 15.1593 10.1662 14.3983 10.159 13.5126Z" fill="#110041"/>
</svg>
