<svg width="14" height="13" viewBox="0 0 14 13" fill="none" xmlns="http://www.w3.org/2000/svg">
<path d="M10.404 4.05059L10.3333 3.97988L10.2626 4.05059L9.32929 4.98392L9.25858 5.05463L9.32929 5.12534L10.2252 6.0213H5H4.9V6.1213V7.45463V7.55463H5H10.2252L9.32929 8.45059L9.25858 8.5213L9.32929 8.59201L10.2626 9.52534L10.3333 9.59605L10.404 9.52534L13.0707 6.85867L13.1414 6.78796L13.0707 6.71725L10.404 4.05059ZM7 11.3546H2.43333V2.2213H7H7.1V2.1213V0.787964V0.687964H7H2.33333C1.54477 0.687964 0.9 1.33274 0.9 2.1213V11.4546C0.9 12.2432 1.54477 12.888 2.33333 12.888H7H7.1V12.788V11.4546V11.3546H7Z" fill="#110041" stroke="black" stroke-width="0.2"/>
</svg>
