<svg width="16" height="15" viewBox="0 0 16 15" fill="none" xmlns="http://www.w3.org/2000/svg">
<path d="M6 3.1H3.6C3.17565 3.1 2.76869 3.26857 2.46863 3.56863C2.16857 3.86869 2 4.27565 2 4.7V11.9C2 12.3243 2.16857 12.7313 2.46863 13.0314C2.76869 13.3314 3.17565 13.5 3.6 13.5H10.8C11.2243 13.5 11.6313 13.3314 11.9314 13.0314C12.2314 12.7313 12.4 12.3243 12.4 11.9V9.5M9.2 3.9C9.2 4.53652 9.45286 5.14697 9.90294 5.59706C10.353 6.04714 10.9635 6.3 11.6 6.3C12.2365 6.3 12.847 6.04714 13.2971 5.59706C13.7471 5.14697 14 4.53652 14 3.9C14 3.26348 13.7471 2.65303 13.2971 2.20294C12.847 1.75286 12.2365 1.5 11.6 1.5C10.9635 1.5 10.353 1.75286 9.90294 2.20294C9.45286 2.65303 9.2 3.26348 9.2 3.9Z" stroke="white" stroke-width="3" stroke-linecap="round" stroke-linejoin="round"/>
</svg>
