<svg width="13" height="15" viewBox="0 0 13 15" fill="none" xmlns="http://www.w3.org/2000/svg">
<path d="M9.15764 1.125C8.51724 0.375 7.68473 0 6.91625 0C6.14778 0 5.25123 0.375 4.67488 1.125L0.960591 5.325C-0.320197 6.825 -0.320197 9.15 0.960591 10.65C2.24138 12.15 4.2266 12.15 5.50739 10.65L9.15764 6.375C10.3744 4.95 10.3744 2.55 9.15764 1.125ZM8.26108 5.325L6.46798 7.425L4.16256 4.8L1.34483 8.1C1.34483 7.5 1.47291 6.825 1.92118 6.375L5.57143 2.1C5.89163 1.725 6.40394 1.5 6.85222 1.5C7.30049 1.5 7.81281 1.725 8.19704 2.1C8.96552 3.075 8.96552 4.425 8.26108 5.325ZM11.335 3.825C11.335 4.425 11.2069 4.95 11.0788 5.55C11.7192 6.45 11.7192 7.8 11.0148 8.625L9.22167 10.725L8.26108 9.6L6.46798 11.7C5.63547 12.675 4.48276 13.2 3.39409 13.2C3.52217 13.425 3.65025 13.65 3.84236 13.875C5.12315 15.375 7.10837 15.375 8.38916 13.875L12.0394 9.6C13.3202 8.1 13.3202 5.775 12.0394 4.275C11.7192 4.125 11.5271 3.975 11.335 3.825Z" fill="#341D75"/>
</svg>
