<svg width="20" height="25" viewBox="0 0 20 25" fill="none" xmlns="http://www.w3.org/2000/svg">
<path d="M9.625 19.7361C10.1979 19.7361 10.6851 19.5374 11.0866 19.1399C11.4881 18.7425 11.6884 18.2607 11.6875 17.6944V16.3333H13.0625C13.6354 16.3333 14.1226 16.1346 14.5241 15.7372C14.9256 15.3397 15.1259 14.8579 15.125 14.2917C15.125 13.7245 14.9242 13.2423 14.5227 12.8448C14.1212 12.4474 13.6345 12.2491 13.0625 12.25H11.6875V10.8889C11.6875 10.3218 11.4868 9.83947 11.0853 9.44203C10.6838 9.04459 10.197 8.84632 9.625 8.84722C9.05208 8.84722 8.56488 9.04595 8.16338 9.44339C7.76188 9.84083 7.56158 10.3227 7.5625 10.8889V12.25H6.1875C5.61458 12.25 5.12738 12.4487 4.72588 12.8462C4.32438 13.2436 4.12408 13.7254 4.125 14.2917C4.125 14.8588 4.32575 15.3411 4.72725 15.7385C5.12875 16.136 5.6155 16.3342 6.1875 16.3333H7.5625V17.6944C7.5625 18.2616 7.76325 18.7439 8.16475 19.1413C8.56625 19.5387 9.053 19.737 9.625 19.7361ZM2.75 24.5C1.99375 24.5 1.34613 24.2332 0.807127 23.6997C0.268127 23.1661 -0.000914332 22.5255 2.33447e-06 21.7778V6.80556C2.33447e-06 6.05695 0.269502 5.41586 0.808502 4.88231C1.3475 4.34875 1.99467 4.08243 2.75 4.08334H16.5C17.2562 4.08334 17.9039 4.35011 18.4429 4.88367C18.9819 5.41723 19.2509 6.05785 19.25 6.80556V21.7778C19.25 22.5264 18.9805 23.1675 18.4415 23.701C17.9025 24.2346 17.2553 24.5009 16.5 24.5H2.75ZM2.75 2.72223C2.36042 2.72223 2.03363 2.59156 1.76963 2.33023C1.50563 2.06889 1.37409 1.74586 1.375 1.36112C1.375 0.975467 1.507 0.651977 1.771 0.390643C2.035 0.12931 2.36134 -0.000902697 2.75 4.70973e-06H16.5C16.8896 4.70973e-06 17.2164 0.130671 17.4804 0.392005C17.7444 0.653338 17.8759 0.976375 17.875 1.36112C17.875 1.74676 17.743 2.07025 17.479 2.33159C17.215 2.59292 16.8887 2.72313 16.5 2.72223H2.75Z" fill="#B9087D"/>
</svg>
