<svg width="22" height="22" viewBox="0 0 22 22" fill="none" xmlns="http://www.w3.org/2000/svg">
<path d="M1 18.2267C1 16.7556 1.52678 15.3448 2.46447 14.3046C3.40215 13.2644 4.67392 12.68 6 12.68H16C17.3261 12.68 18.5979 13.2644 19.5355 14.3046C20.4732 15.3448 21 16.7556 21 18.2267C21 18.9622 20.7366 19.6676 20.2678 20.1877C19.7989 20.7078 19.163 21 18.5 21H3.5C2.83696 21 2.20107 20.7078 1.73223 20.1877C1.26339 19.6676 1 18.9622 1 18.2267Z" fill="#4B2F99" stroke="#4B2F99" stroke-width="2" stroke-linejoin="round"/>
<path d="M11 9.32002C13.7614 9.32002 16 7.45752 16 5.16001C16 2.8625 13.7614 1 11 1C8.23858 1 6 2.8625 6 5.16001C6 7.45752 8.23858 9.32002 11 9.32002Z" fill="#4B2F99" stroke="#4B2F99" stroke-width="2"/>
</svg>
