<?xml version="1.0" encoding="utf-8"?>
<!-- Generator: Adobe Illustrator 27.3.1, SVG Export Plug-In . SVG Version: 6.00 Build 0)  -->
<svg version="1.1" id="Layer_1" xmlns="http://www.w3.org/2000/svg" xmlns:xlink="http://www.w3.org/1999/xlink" x="0px" y="0px"
	 viewBox="0 0 22 23" style="enable-background:new 0 0 22 23;" xml:space="preserve">
<path d="M18.5,22.5h-15c-0.9,0-1.9-0.4-2.5-1.1c-0.6-0.7-1-1.6-1-2.6c0-1.7,0.6-3.4,1.7-4.6c1.1-1.2,2.7-2,4.3-2h10
	c1.6,0,3.2,0.7,4.3,2c1.1,1.2,1.7,2.9,1.7,4.6c0,1-0.4,1.9-1,2.6C20.4,22.1,19.4,22.5,18.5,22.5z M6,14.2c-1,0-2,0.5-2.8,1.3
	c-0.8,0.9-1.2,2-1.2,3.3c0,0.5,0.2,1,0.5,1.3c0.3,0.3,0.6,0.5,1,0.5h15c0.4,0,0.7-0.2,1-0.5c0.3-0.3,0.5-0.8,0.5-1.3
	c0-1.2-0.4-2.4-1.2-3.3C18,14.6,17,14.2,16,14.2H6z"/>
<path d="M11,10.8c-3.3,0-6-2.3-6-5.2s2.7-5.2,6-5.2s6,2.3,6,5.2S14.3,10.8,11,10.8z M11,2.5c-2.2,0-4,1.4-4,3.2c0,1.7,1.8,3.2,4,3.2
	c2.2,0,4-1.4,4-3.2C15,3.9,13.2,2.5,11,2.5z"/>
</svg>
