<svg width="19" height="18" viewBox="0 0 19 18" fill="none" xmlns="http://www.w3.org/2000/svg">
<path d="M7.61249 2.20601C7.99743 0.664483 10.2526 0.664483 10.6375 2.20601C10.8861 3.20182 12.0597 3.6744 12.9598 3.14119C14.3533 2.31579 15.9478 3.86601 15.0989 5.22066C14.5503 6.09574 15.0365 7.23666 16.0608 7.47836C17.6464 7.8526 17.6464 10.045 16.0608 10.4192C15.0365 10.6609 14.5503 11.8018 15.0989 12.6769C15.9478 14.0316 14.3533 15.5818 12.9598 14.7564C12.0597 14.2232 10.8861 14.6958 10.6375 15.6916C10.2526 17.2331 7.99743 17.2331 7.61249 15.6916C7.36386 14.6958 6.1903 14.2232 5.29017 14.7564C3.89674 15.5818 2.30216 14.0316 3.15118 12.6769C3.69965 11.8018 3.21355 10.6609 2.18924 10.4192C0.603588 10.045 0.603588 7.8526 2.18924 7.47836C3.21355 7.23666 3.69964 6.09575 3.15118 5.22066C2.30216 3.86601 3.89674 2.31579 5.29017 3.14119C6.1903 3.67439 7.36386 3.20182 7.61249 2.20601Z" stroke="#110041" stroke-width="2" stroke-linecap="round" stroke-linejoin="round"/>
<path d="M11.832 8.94896C11.832 10.4032 10.6194 11.5819 9.12362 11.5819C7.62781 11.5819 6.41528 10.4032 6.41528 8.94896C6.41528 7.49476 7.62781 6.31598 9.12362 6.31598C10.6194 6.31598 11.832 7.49476 11.832 8.94896Z" stroke="#110041" stroke-width="2" stroke-linecap="round" stroke-linejoin="round"/>
</svg>
