<svg width="25" height="30" viewBox="0 0 25 30" fill="none" xmlns="http://www.w3.org/2000/svg">
<rect width="25" height="30" rx="5" fill="white"/>
<path d="M19.3031 4.49096L19.303 4.49096C18.105 4.3445 16.5764 4.3445 14.6585 4.3445H14.6518H10.3486H10.3419C8.42399 4.3445 6.8964 4.3445 5.69736 4.49096L5.6973 4.49096C4.46138 4.6426 3.44451 4.96298 2.63878 5.69526L2.63869 5.69535C1.83268 6.42985 1.47881 7.3589 1.31156 8.48795L1.31154 8.48806C1.21671 9.13344 1.17785 9.88164 1.161 10.7433C1.14758 10.8212 1.14643 10.9006 1.15759 10.9788C1.15037 11.5163 1.15037 12.097 1.15037 12.724V12.7245V12.8312V12.8392C1.15037 14.583 1.15037 15.9747 1.31155 17.0677L1.31156 17.0677C1.47881 18.1968 1.83268 19.1258 2.63869 19.8603L2.63878 19.8604C3.44451 20.5927 4.46138 20.9131 5.6973 21.0647L5.69735 21.0647C6.89535 21.2112 8.42398 21.2112 10.3419 21.2112H10.3486H14.6518H14.6585C16.5764 21.2112 18.104 21.2112 19.303 21.0647L19.3031 21.0647C20.539 20.9131 21.5559 20.5927 22.3616 19.8604L22.3617 19.8603C23.1677 19.1258 23.5216 18.1968 23.6888 17.0677L23.6888 17.0677C23.85 15.9756 23.85 14.583 23.85 12.8392V12.8312V12.7245V12.724C23.85 12.0969 23.85 11.5161 23.8428 10.9786C23.8536 10.9003 23.8521 10.821 23.8383 10.7431C23.8225 9.88149 23.7837 9.13338 23.6888 8.48806L23.6888 8.48795C23.5216 7.3589 23.1677 6.42985 22.3617 5.69535L22.3616 5.69526C21.5559 4.96298 20.539 4.6426 19.3031 4.49096ZM22.049 10.0588H2.95134C2.97265 9.5455 3.00739 9.10014 3.06554 8.70675L3.06555 8.70672C3.2049 7.76258 3.46423 7.23543 3.88368 6.8537C4.30446 6.47076 4.88768 6.23308 5.9309 6.10567L5.93091 6.10567C6.99922 5.97516 8.40895 5.97308 10.4072 5.97308H14.5932C16.5914 5.97308 18.0022 5.97516 19.0705 6.10567C20.1127 6.23307 20.6959 6.47075 21.1167 6.8537C21.5361 7.23542 21.7955 7.76256 21.9348 8.70766L21.9348 8.70773C21.993 9.10021 22.0277 9.5455 22.049 10.0588ZM2.92011 12.7778C2.92011 12.3909 2.92011 12.028 2.92169 11.6874H22.0787C22.0803 12.028 22.0803 12.3909 22.0803 12.7778C22.0803 14.5971 22.0779 15.8779 21.9348 16.848C21.7955 17.7931 21.5361 18.3203 21.1167 18.702C20.6959 19.0849 20.1127 19.3226 19.0705 19.45C18.0022 19.5805 16.5914 19.5826 14.5932 19.5826H10.4072C8.40895 19.5826 6.99922 19.5805 5.93091 19.45C4.88768 19.3226 4.30446 19.0849 3.88368 18.702C3.46423 18.3202 3.2049 17.7931 3.06555 16.8489C2.92246 15.8779 2.92011 14.5971 2.92011 12.7778ZM5.59892 16.0083C5.4321 16.1601 5.33635 16.3682 5.33635 16.5874C5.33635 16.8065 5.4321 17.0146 5.59892 17.1664C5.76543 17.3179 5.98942 17.4016 6.22122 17.4016H10.4072C10.639 17.4016 10.863 17.3179 11.0295 17.1664C11.1963 17.0146 11.2921 16.8065 11.2921 16.5874C11.2921 16.3682 11.1963 16.1601 11.0295 16.0083C10.863 15.8568 10.639 15.7731 10.4072 15.7731H6.22122C5.98942 15.7731 5.76543 15.8568 5.59892 16.0083ZM12.4011 16.0083C12.2343 16.1601 12.1386 16.3682 12.1386 16.5874C12.1386 16.8065 12.2343 17.0146 12.4011 17.1664C12.5676 17.3179 12.7916 17.4016 13.0234 17.4016H14.5932C14.825 17.4016 15.049 17.3179 15.2155 17.1664C15.3823 17.0146 15.478 16.8065 15.478 16.5874C15.478 16.3682 15.3823 16.1601 15.2155 16.0083C15.049 15.8568 14.825 15.7731 14.5932 15.7731H13.0234C12.7916 15.7731 12.5676 15.8568 12.4011 16.0083Z" fill="#110041" stroke="#110041" stroke-width="0.2"/>
</svg>
