<?xml version="1.0" encoding="utf-8"?>
<!-- Generator: Adobe Illustrator 27.3.1, SVG Export Plug-In . SVG Version: 6.00 Build 0)  -->
<svg version="1.1" id="Layer_1" xmlns="http://www.w3.org/2000/svg" xmlns:xlink="http://www.w3.org/1999/xlink" x="0px" y="0px"
	 viewBox="0 0 24 23" style="enable-background:new 0 0 24 23;" xml:space="preserve">
<style type="text/css">
	.st0{fill-rule:evenodd;clip-rule:evenodd;fill:#4B2F99;}
</style>
<path class="st0" d="M23.4,3.4c-0.7-0.1-1.3-0.2-2-0.2c-2.1-0.2-4.2-0.5-6-1.5L14.1,1c-0.6-0.3-1.2-0.5-1.8-0.5
	c-0.6,0-1.3,0.2-1.8,0.5h0L9.2,1.7C7.1,2.9,4.6,3.1,2.1,3.3C1.5,3.4,1,3.4,0.5,3.5c0,0,0,1.1,0,1.6l0.1,4.2c0.1,3.6,1.9,7.1,4.9,9.6
	c1.6,1.3,3.3,2.4,5.2,3.2c0.5,0.2,1.1,0.3,1.6,0.3c0.6,0,1.1-0.2,1.6-0.4c1.7-0.9,3.1-2,4.5-3.2c3-2.5,4.7-6,4.8-9.6L23.4,5
	C23.5,4.5,23.4,3.4,23.4,3.4z M13.2,12.4l0,4.2l-2.6,0l0-4.2l-4.5,0l0-2.4l4.5,0l0-4.2l2.6,0l0,4.2l4.5,0l0,2.4L13.2,12.4z"/>
</svg>
