<svg width="24" height="22" viewBox="0 0 24 22" fill="none" xmlns="http://www.w3.org/2000/svg">
<rect x="1" y="1.75" width="22" height="18.5" rx="4" fill="#4B2F99" stroke="#4B2F99" stroke-width="2"/>
<mask id="path-2-inside-1_1004_1542" fill="white">
<path d="M12.9995 8.07358C12.9995 6.69286 14.1188 5.57358 15.4995 5.57358H21.1359C22.5166 5.57358 23.6359 6.69287 23.6359 8.07358V12.7206C23.6359 14.1013 22.5166 15.2206 21.1359 15.2206H15.4995C14.1188 15.2206 12.9995 14.1013 12.9995 12.7206V8.07358Z"/>
</mask>
<path d="M10.9995 8.07358C10.9995 5.5883 13.0142 3.57358 15.4995 3.57358H21.1359C23.0689 3.57358 24.6359 5.14058 24.6359 7.07358L22.6359 8.07358C22.6359 7.79744 21.9643 7.57358 21.1359 7.57358H15.4995C15.2234 7.57358 14.9995 7.79744 14.9995 8.07358H10.9995ZM24.6359 12.7206C24.6359 14.6536 23.0689 16.2206 21.1359 16.2206H14.4995C12.5665 16.2206 10.9995 14.6536 10.9995 12.7206H14.9995C14.9995 13.5491 15.2234 14.2206 15.4995 14.2206H21.1359C21.9643 14.2206 22.6359 13.5491 22.6359 12.7206H24.6359ZM14.4995 16.2206C12.5665 16.2206 10.9995 14.6536 10.9995 12.7206V8.07358C10.9995 5.5883 13.0142 3.57358 15.4995 3.57358V7.57358C15.2234 7.57358 14.9995 7.79744 14.9995 8.07358V12.7206C14.9995 13.5491 15.2234 14.2206 15.4995 14.2206L14.4995 16.2206ZM21.1359 3.57358C23.0689 3.57358 24.6359 5.14058 24.6359 7.07358V12.7206C24.6359 14.6536 23.0689 16.2206 21.1359 16.2206V14.2206C21.9643 14.2206 22.6359 13.5491 22.6359 12.7206V8.07358C22.6359 7.79744 21.9643 7.57358 21.1359 7.57358V3.57358Z" fill="white" mask="url(#path-2-inside-1_1004_1542)"/>
</svg>
